<svg xmlns="http://www.w3.org/2000/svg" width="55" height="55" viewBox="0 0 55 55">
  <path id="facebook" d="M295.972,5089.027h-2.148a2.358,2.358,0,0,0-.359-.084,25.736,25.736,0,0,1-9.486-2.48,27.158,27.158,0,0,1-15.507-20.144c-.2-1.013-.289-2.048-.429-3.073v-3.437c.043-.352.091-.7.129-1.056a27.548,27.548,0,0,1,22.686-24.311c.983-.17,1.977-.278,2.966-.415h3.437a2.884,2.884,0,0,0,.414.088,26.275,26.275,0,0,1,11.9,3.772,27.135,27.135,0,0,1,13.05,18.9c.187,1,.283,2.014.422,3.021v3.33c-.117.936-.186,1.882-.358,2.808a27.239,27.239,0,0,1-15.832,20.635c-1.167.557-2.413.949-3.674,1.438v-20.408h5.887l.891-6.9h-6.773a2.486,2.486,0,0,1-.035-.273c0-1.539-.021-3.079.018-4.618a2.542,2.542,0,0,1,2.74-2.776c1.215-.053,2.434-.027,3.651-.035.188,0,.377,0,.557,0v-6.273c-2.157-.033-4.286-.166-6.4-.056a8.849,8.849,0,0,0-3.232.869c-2.891,1.369-4.161,3.882-4.381,6.945-.133,1.853-.056,3.721-.073,5.582,0,.208,0,.415,0,.683h-5.875v6.861h5.875v.636q0,10.1,0,20.193C296.024,5088.639,295.99,5088.833,295.972,5089.027Z" transform="translate(-268.043 -5034.027)" fill="#fff"/>
</svg>
