<svg xmlns="http://www.w3.org/2000/svg" width="55" height="55" viewBox="0 0 55 55">
  <g id="instagram" transform="translate(-190.085 -5034.027)">
    <path id="Path_273" data-name="Path 273" d="M215.866,5034.027H219.3a2.871,2.871,0,0,0,.413.088,26.178,26.178,0,0,1,11.943,3.8,27.144,27.144,0,0,1,13,18.876c.186,1,.284,2.013.422,3.02v3.437c-.044.353-.093.705-.131,1.058a27.573,27.573,0,0,1-22.579,24.3c-1.016.184-2.047.286-3.071.425h-3.438c-.671-.082-1.344-.154-2.013-.249a27.561,27.561,0,0,1-23.34-22.459c-.185-1.016-.287-2.048-.428-3.073v-3.437c.044-.353.091-.7.13-1.057a27.557,27.557,0,0,1,22.686-24.31C213.884,5034.271,214.878,5034.164,215.866,5034.027Zm1.77,11.628,0,.191c-2.273,0-4.547-.041-6.818.013a9.409,9.409,0,0,0-5.131,1.512,8.484,8.484,0,0,0-3.753,7.289c-.092,4.579-.058,9.163-.006,13.744a9.026,9.026,0,0,0,1.5,5.023,8.495,8.495,0,0,0,7.289,3.753c4.58.094,9.163.081,13.744,0a8.669,8.669,0,0,0,6.526-2.793,9.049,9.049,0,0,0,2.265-6.106c.085-3.757.093-7.517.1-11.276a33.233,33.233,0,0,0-.192-3.321,8.293,8.293,0,0,0-7.746-7.718C222.828,5045.754,220.228,5045.752,217.636,5045.655Z" fill="#fff"/>
    <path id="Path_274" data-name="Path 274" d="M217.586,5074.522c-2.378-.068-4.76-.074-7.134-.217-3.376-.2-5.535-2.267-5.627-5.652-.129-4.79-.091-9.588.005-14.38a5.292,5.292,0,0,1,2.913-4.814,7.363,7.363,0,0,1,3.477-.782c4.508,0,9.019-.053,13.523.089a5.423,5.423,0,0,1,5.6,5.606q.19,7.159,0,14.326c-.087,3.3-2.276,5.375-5.565,5.611-1.195.086-2.395.116-3.593.139s-2.4,0-3.6,0Zm8.1-13.007a8.1,8.1,0,1,0-8.118,8.115A8.09,8.09,0,0,0,225.688,5061.515Zm2.214-8.414a1.887,1.887,0,1,0-1.918,1.881A1.879,1.879,0,0,0,227.9,5053.1Z" fill="#fff"/>
    <path id="Path_275" data-name="Path 275" d="M217.578,5056.265a5.262,5.262,0,1,1-5.255,5.256A5.269,5.269,0,0,1,217.578,5056.265Z" fill="#fff"/>
  </g>
</svg>
