<svg xmlns="http://www.w3.org/2000/svg" width="55" height="55" viewBox="0 0 55 55">
  <path id="linkedin" d="M371.781,5034.027h3.438a2.871,2.871,0,0,0,.413.088,26.178,26.178,0,0,1,11.943,3.8,27.144,27.144,0,0,1,13,18.876c.186,1,.284,2.013.422,3.02v3.437c-.044.353-.093.705-.132,1.058a27.57,27.57,0,0,1-22.579,24.3c-1.015.184-2.046.286-3.07.425h-3.438c-.671-.082-1.344-.154-2.013-.249a27.564,27.564,0,0,1-23.341-22.459c-.184-1.016-.287-2.048-.427-3.073v-3.437c.044-.353.091-.7.13-1.057a27.557,27.557,0,0,1,22.686-24.31C369.8,5034.271,370.792,5034.164,371.781,5034.027Zm4.128,41.554c0-1.731-.005-3.411,0-5.091.008-2.273,0-4.546.049-6.818a3.452,3.452,0,0,1,1.682-2.845,3.222,3.222,0,0,1,5.018,1.808,8.968,8.968,0,0,1,.286,2.329c.03,3.347.013,6.694.013,10.04v.56h6.672c.009-.176.022-.317.022-.459,0-3.669.008-7.338-.007-11.007a19.4,19.4,0,0,0-.142-2.193c-.469-3.946-2.83-6.437-6.63-6.87a6.663,6.663,0,0,0-6.686,2.866,3.743,3.743,0,0,1-.278.3c0-.83-.021-1.541.007-2.25.016-.4-.1-.524-.512-.52-1.915.02-3.83.008-5.745.011a4.025,4.025,0,0,0-.409.041v20.1Zm-10.42,0c.011-.137.025-.223.025-.31q0-9.693.01-19.386c0-.417-.187-.455-.52-.454-1.9.01-3.795,0-5.693.007-.155,0-.311.023-.467.035v20.108Zm-7.063-26.362a3.477,3.477,0,0,0,3.742,3.482,3.494,3.494,0,1,0,.052-6.968A3.487,3.487,0,0,0,358.426,5049.223Z" transform="translate(-346 -5034.027)" fill="#fff"/>
</svg>
