<svg xmlns="http://www.w3.org/2000/svg" xmlns:xlink="http://www.w3.org/1999/xlink" viewBox="0 0 321.84 125.98"><defs><style>.cls-1{fill:#fff;}.cls-2{fill:url(#radial-gradient);}</style><radialGradient id="radial-gradient" cx="29.3" cy="69" r="45.3" gradientUnits="userSpaceOnUse"><stop offset="0" stop-color="#c52026"/><stop offset="0.21" stop-color="#bd1f25"/><stop offset="1" stop-color="#a11d21"/></radialGradient></defs><g id="Layer_2" data-name="Layer 2"><g id="Layer_1-2" data-name="Layer 1"><path class="cls-1" d="M61.16,106.79c10.65-2.9,20.71-7.23,25.63-11.08l9.34-71.94-19-3.57c-9.64-1.7-15.87-2.39-21.5-2.39A75.15,75.15,0,0,0,39.82,19.6L19.64,25.23,11.4,9,35.59,2.29c16-3.4,26.63-2.8,44.74.39L116,9.37,103.73,103.6c-6.62,9.57-23,15.9-34.36,19.32Z"/><path class="cls-2" d="M23.31,56.43l4.78,39.32c4.07,3.16,11.58,6.63,20,9.38l10.49,20.6-1.17.25S21.73,119,11.1,103.6L0,12.22.71,12Z"/><path class="cls-1" d="M149.5,18.75h3.8V38.31h11.53v2.93H149.5Z"/><path class="cls-1" d="M175.85,38.78c-1.76-1.88-2.64-4.78-2.64-8.72s.87-7,2.62-8.87,4.42-2.79,8-2.79,6.29.93,8,2.79,2.62,4.82,2.62,8.87-.88,6.84-2.63,8.72-4.43,2.81-8,2.81S177.6,40.65,175.85,38.78Zm13.21-2.36q1.65-2,1.65-6.36c0-3-.55-5.21-1.63-6.49s-2.82-1.92-5.22-1.92-4.1.64-5.19,1.92-1.62,3.44-1.62,6.49.55,5,1.64,6.34,2.82,2,5.17,2S188,37.72,189.06,36.42Z"/><path class="cls-1" d="M206.6,18.75H210L221.68,35.3V18.75h3.77V41.24H222.1L210.4,24.72V41.24h-3.8Z"/><path class="cls-1" d="M238.24,18.75h9.11c3.38,0,5.86.89,7.44,2.69s2.37,4.69,2.37,8.69c0,3.84-.79,6.66-2.37,8.44s-4.06,2.67-7.44,2.67h-9.11Zm8.52,19.56a8.6,8.6,0,0,0,3.75-.69,4.38,4.38,0,0,0,2.13-2.46,13.89,13.89,0,0,0,.72-5,15.29,15.29,0,0,0-.67-5.1,4.47,4.47,0,0,0-2.07-2.56,8.33,8.33,0,0,0-3.86-.75H242V38.31Z"/><path class="cls-1" d="M270.94,38.78c-1.76-1.88-2.64-4.78-2.64-8.72s.88-7,2.62-8.87,4.43-2.79,8-2.79,6.28.93,8,2.79,2.62,4.82,2.62,8.87-.88,6.84-2.64,8.72-4.43,2.81-8,2.81S272.7,40.65,270.94,38.78Zm13.22-2.36q1.63-2,1.64-6.36,0-4.57-1.62-6.49T279,21.65q-3.57,0-5.19,1.92c-1.08,1.28-1.63,3.44-1.63,6.49s.55,5,1.65,6.34,2.81,2,5.17,2S283.06,37.72,284.16,36.42Z"/><path class="cls-1" d="M301.45,18.75h3.35L316.53,35.3V18.75h3.77V41.24H317l-11.7-16.52V41.24h-3.8Z"/><path class="cls-1" d="M149.5,56h10.33c2.45,0,4.26.63,5.45,1.89a7.41,7.41,0,0,1,1.78,5.31,6.73,6.73,0,0,1-1.2,4.06,6.36,6.36,0,0,1-3.41,2.33,4,4,0,0,1,1,.92,8.36,8.36,0,0,1,.73,1.45L167,78.45h-3.91l-2.76-6.28a2.94,2.94,0,0,0-1-1.31,3.28,3.28,0,0,0-1.78-.37H153.3v8h-3.8Zm9.32,11.46q4.44,0,4.44-4.26c0-2.82-1.37-4.23-4.09-4.23H153.3v8.49Z"/><path class="cls-1" d="M177.15,56h15.69v3H181v6.81h10.58v2.93H181v6.85h11.88v2.93H177.15Z"/><path class="cls-1" d="M202.72,56H218v3H206.52v6.81h10.2v2.93h-10.2v9.78h-3.8Z"/><path class="cls-1" d="M227.37,56h15.68v3H231.18v6.81h10.58v2.93H231.18v6.85h11.87v2.93H227.37Z"/><path class="cls-1" d="M252.94,56h10.33c2.45,0,4.26.63,5.45,1.89a7.41,7.41,0,0,1,1.78,5.31,6.73,6.73,0,0,1-1.2,4.06,6.33,6.33,0,0,1-3.41,2.33,4,4,0,0,1,.95.92,8.36,8.36,0,0,1,.73,1.45l2.83,6.53h-3.91l-2.76-6.28a2.94,2.94,0,0,0-1-1.31,3.28,3.28,0,0,0-1.78-.37h-4.23v8h-3.8Zm9.32,11.46q4.44,0,4.44-4.26c0-2.82-1.37-4.23-4.09-4.23h-5.87v8.49Z"/><path class="cls-1" d="M280.59,56h15.69v3H284.4v6.81H295v2.93H284.4v6.85h11.88v2.93H280.59Z"/><path class="cls-1" d="M306.16,56h15.68v3H310v6.81h10.58v2.93H310v6.85h11.87v2.93H306.16Z"/><path class="cls-1" d="M151.26,104.71a6.57,6.57,0,0,1-1.67-4.77,7.49,7.49,0,0,1,1.65-5.16,6.26,6.26,0,0,1,4.92-1.85,11.93,11.93,0,0,1,3.88.59v1.91a11,11,0,0,0-3.7-.61,4.25,4.25,0,0,0-3.46,1.27,6,6,0,0,0-1,3.85q0,4.62,4.33,4.62a8.13,8.13,0,0,0,2.82-.41v-3.66h-3.27V99.05h5.16v6.3a6.44,6.44,0,0,1-1.92.77,11.24,11.24,0,0,1-2.85.31A6.47,6.47,0,0,1,151.26,104.71Z"/><path class="cls-1" d="M190.08,93.14h6a4.17,4.17,0,0,1,3.17,1.09,4.32,4.32,0,0,1,1,3.09,3.89,3.89,0,0,1-.7,2.37,3.68,3.68,0,0,1-2,1.35,2.18,2.18,0,0,1,.55.54,5.32,5.32,0,0,1,.43.84l1.64,3.8H198l-1.61-3.65a1.72,1.72,0,0,0-.57-.77,2,2,0,0,0-1-.21H192.3v4.63h-2.22Zm5.43,6.66c1.72,0,2.58-.83,2.58-2.48a2.14,2.14,0,0,0-2.38-2.46H192.3V99.8Z"/><path class="cls-1" d="M230.35,104.79q-1.53-1.64-1.53-5.07t1.52-5.16a7.52,7.52,0,0,1,9.35,0q1.53,1.62,1.53,5.16a7.22,7.22,0,0,1-1.54,5.07,7.45,7.45,0,0,1-9.33,0Zm7.7-1.37a5.78,5.78,0,0,0,.95-3.7,5.91,5.91,0,0,0-.94-3.78,4.66,4.66,0,0,0-6.06,0,5.91,5.91,0,0,0-.95,3.78,5.74,5.74,0,0,0,1,3.69,3.69,3.69,0,0,0,3,1.15A3.75,3.75,0,0,0,238.05,103.42Z"/><path class="cls-1" d="M271.82,105.13a4.76,4.76,0,0,1-1.48-3.76V93.14h2.22v8.15a3.12,3.12,0,0,0,.89,2.44,3.69,3.69,0,0,0,2.58.83,3.63,3.63,0,0,0,2.56-.83,3.13,3.13,0,0,0,.9-2.44V93.14h2.19v8.23a4.76,4.76,0,0,1-1.47,3.76,6.15,6.15,0,0,1-4.18,1.3A6.24,6.24,0,0,1,271.82,105.13Z"/><path class="cls-1" d="M311.19,93.14H317a4.28,4.28,0,0,1,3.28,1.19,4.5,4.5,0,0,1,1.11,3.18,4.2,4.2,0,0,1-1.21,3.13,4.52,4.52,0,0,1-3.27,1.17h-3.53v4.41h-2.22Zm5.35,6.93a2.71,2.71,0,0,0,2-.68,2.55,2.55,0,0,0,.69-1.88,2.78,2.78,0,0,0-.65-2,2.5,2.5,0,0,0-1.91-.69h-3.23v5.21Z"/></g></g></svg>