<svg id="LogoSymbol" xmlns="http://www.w3.org/2000/svg" width="166.5" height="180.893" viewBox="0 0 166.5 180.893">
  <path id="Path_285" data-name="Path 285" d="M618.335,225.214c15.289-4.17,29.734-10.386,36.807-15.918L668.545,106l-27.273-5.12c-13.851-2.441-22.8-3.436-30.882-3.436a107.982,107.982,0,0,0-22.7,2.572L558.72,108.1l-11.836-23.25,34.734-9.689c22.94-4.879,38.235-4.029,64.239.56l51.16,9.606L679.46,220.634c-9.512,13.741-32.992,22.833-49.34,27.734Z" transform="translate(-530.516 -71.872)" fill="#fff"/>
  <path id="Path_286" data-name="Path 286" d="M568.958,147.654l6.859,56.459c5.84,4.537,16.623,9.53,28.738,13.47l15.059,29.585c-1.087.237-1.689.356-1.689.356s-51.24-10.08-66.5-32.131L535.485,84.178l1.016-.284Z" transform="translate(-535.485 -66.631)" fill="#b5091b"/>
</svg>
