<svg xmlns="http://www.w3.org/2000/svg" viewBox="0 0 75.88 110.34"><defs><style>.cls-1{fill:#fff;}.cls-2{fill:#c52026;}</style></defs><g id="Layer_2" data-name="Layer 2"><g id="Layer_1-2" data-name="Layer 1"><path class="cls-1" d="M40,69.89c7-1.9,13.56-4.74,16.78-7.26l6.11-47.07L50.48,13.22A80.65,80.65,0,0,0,36.4,11.66a49.25,49.25,0,0,0-10.34,1.17L12.85,16.51,7.46,5.92,23.29,1.5C33.74-.72,40.72-.34,52.57,1.75L75.88,6.13l-8,61.67c-4.33,6.26-15,10.41-22.48,12.64Z"/><path class="cls-2" d="M15.26,36.93l3.12,25.73C21,64.73,26,67,31.48,68.8l6.86,13.48-.77.16S14.22,77.85,7.26,67.8L0,8l.46-.13Z"/><path class="cls-1" d="M16.45,95.39h2.49v12.8h7.55v1.92h-10Z"/><path class="cls-1" d="M33.91,95.39h6.77a4.67,4.67,0,0,1,3.56,1.23,4.87,4.87,0,0,1,1.17,3.48,4.37,4.37,0,0,1-.79,2.66,4.13,4.13,0,0,1-2.23,1.52,2.37,2.37,0,0,1,.62.6,5.89,5.89,0,0,1,.48,1l1.85,4.28H42.78L41,106a2,2,0,0,0-.64-.85,2.22,2.22,0,0,0-1.17-.24H36.41v5.21h-2.5Zm6.11,7.5c1.93,0,2.9-.93,2.9-2.79s-.89-2.77-2.68-2.77H36.41v5.56Z"/><path class="cls-1" d="M54.73,108.4a7.34,7.34,0,0,1-1.87-5.35,8.46,8.46,0,0,1,1.85-5.81,7,7,0,0,1,5.53-2.08,13.42,13.42,0,0,1,4.37.66V98a12.1,12.1,0,0,0-4.16-.68,4.79,4.79,0,0,0-3.9,1.42,6.77,6.77,0,0,0-1.18,4.34c0,3.45,1.63,5.18,4.87,5.18a9.33,9.33,0,0,0,3.18-.45v-4.12H59.74V102h5.8v7.08a7.07,7.07,0,0,1-2.16.87,13,13,0,0,1-3.21.35A7.24,7.24,0,0,1,54.73,108.4Z"/></g></g></svg>