<svg xmlns="http://www.w3.org/2000/svg" width="55" height="55" viewBox="0 0 55 55">
  <path id="twitter" d="M137.909,5034.027h3.437a2.884,2.884,0,0,0,.414.088,26.178,26.178,0,0,1,11.943,3.8,27.144,27.144,0,0,1,13,18.876c.186,1,.283,2.013.422,3.02v3.437c-.044.353-.093.705-.132,1.058a27.57,27.57,0,0,1-22.579,24.3c-1.016.184-2.047.286-3.071.425h-3.437c-.671-.082-1.344-.154-2.014-.249a27.561,27.561,0,0,1-23.34-22.459c-.184-1.016-.287-2.048-.427-3.073v-3.437c.079-.655.147-1.311.239-1.963a27.552,27.552,0,0,1,22.576-23.4C135.926,5034.271,136.92,5034.164,137.909,5034.027Zm-9.884,30.373a6.121,6.121,0,0,0,1.452,2.449,6.5,6.5,0,0,0,4.421,1.963,13.128,13.128,0,0,1-9.115,2.67,2.621,2.621,0,0,0,.483.347,17.6,17.6,0,0,0,8.8,2.4,17.036,17.036,0,0,0,13.347-5.682,18.065,18.065,0,0,0,4.772-12.484,1.2,1.2,0,0,1,.469-.979c.817-.77,1.572-1.607,2.346-2.422a1.575,1.575,0,0,0,.188-.315l-3.2.874-.078-.143a6.326,6.326,0,0,0,2.495-3.17c-1.175.412-2.336.811-3.49,1.229a.656.656,0,0,1-.756-.2,6.279,6.279,0,0,0-10.387,3.091,19.064,19.064,0,0,0-.235,2.951,17.987,17.987,0,0,1-12.825-6.561,6.106,6.106,0,0,0-.822,3.722,6.367,6.367,0,0,0,2.635,4.607l-.086.145-2.58-.723c-.329,2.425,1.682,5.018,4.774,6.228Z" transform="translate(-112.128 -5034.027)" fill="#fff"/>
</svg>
